<?xml version="1.0" encoding="UTF-8" standalone="no"?>
<!-- Created with Inkscape (http://www.inkscape.org/) -->

<svg
   xmlns:dc="http://purl.org/dc/elements/1.1/"
   xmlns:cc="http://creativecommons.org/ns#"
   xmlns:rdf="http://www.w3.org/1999/02/22-rdf-syntax-ns#"
   xmlns:svg="http://www.w3.org/2000/svg"
   xmlns="http://www.w3.org/2000/svg"
   xmlns:sodipodi="http://sodipodi.sourceforge.net/DTD/sodipodi-0.dtd"
   xmlns:inkscape="http://www.inkscape.org/namespaces/inkscape"
   width="626.0116"
   height="673.65259"
   id="svg2"
   version="1.1"
   inkscape:version="0.48.4 r9939"
   sodipodi:docname="logo.svg">
  <defs
     id="defs4" />
  <sodipodi:namedview
     id="base"
     pagecolor="#ffffff"
     bordercolor="#666666"
     borderopacity="1.0"
     inkscape:pageopacity="0.0"
     inkscape:pageshadow="2"
     inkscape:zoom="0.9749495"
     inkscape:cx="171.42331"
     inkscape:cy="290.26747"
     inkscape:document-units="px"
     inkscape:current-layer="layer1"
     showgrid="false"
     inkscape:window-width="1543"
     inkscape:window-height="1176"
     inkscape:window-x="1423"
     inkscape:window-y="24"
     inkscape:window-maximized="1"
     fit-margin-top="0"
     fit-margin-left="0"
     fit-margin-right="0"
     fit-margin-bottom="0" />
  <metadata
     id="metadata7">
    <rdf:RDF>
      <cc:Work
         rdf:about="">
        <dc:format>image/svg+xml</dc:format>
        <dc:type
           rdf:resource="http://purl.org/dc/dcmitype/StillImage" />
        <dc:title></dc:title>
      </cc:Work>
    </rdf:RDF>
  </metadata>
  <g
     inkscape:label="Layer 1"
     inkscape:groupmode="layer"
     id="layer1"
     transform="translate(-37.15625,-24.81203)">
    <path
       style="fill:#4d4d4d;stroke:#808080;stroke-width:1.79999995;stroke-miterlimit:4;stroke-dasharray:none"
       d="m 299.78105,694.3706 c -0.5754,-2.24229 -12.7193,-53.69484 -26.98646,-114.33901 C 258.52744,519.38743 246.47908,469.50451 246.02045,469.18065 245.56183,468.8568 198.58209,450.16353 141.62103,427.64004 84.659954,405.11656 38.053394,386.39938 38.050894,386.04632 c -0.002,-0.35306 41.88223,-28.22526 93.077186,-61.93822 51.19496,-33.71297 93.67794,-61.84591 94.40661,-62.51765 1.00948,-0.9306 2.50263,-29.10678 6.27229,-118.36016 2.72107,-64.426352 5.1254,-117.316813 5.34295,-117.534364 0.21755,-0.217551 38.87633,33.714551 85.90839,75.404674 47.03206,41.69012 85.80293,75.63141 86.15748,75.4251 1.83668,-1.06879 213.61513,-62.36221 214.03174,-61.94558 0.26983,0.26982 -18.22311,49.34517 -41.09543,109.05632 -22.87232,59.71116 -41.31399,109.27463 -40.9815,110.14108 0.33248,0.86644 27.85779,45.11941 61.16735,98.33994 33.30956,53.22052 60.27264,97.05479 59.91794,97.40949 -0.52496,0.52496 -212.2279,-14.43383 -219.75404,-15.52767 -1.88201,-0.27353 -12.98511,13.92119 -70.7729,90.47933 -37.69739,49.94208 -69.07192,91.51592 -69.7212,92.38633 -0.98485,1.32026 -1.3539,0.90685 -2.22671,-2.49434 l 0,0 z m 72.77179,-217.76973 c 48.73802,-11.77827 82.40086,-47.56109 90.16506,-95.84338 1.88144,-11.6999 0.77773,-31.56914 -2.44561,-44.0265 -7.595,-29.35269 -26.95867,-53.98229 -52.46322,-66.73053 -41.43011,-20.70849 -92.21019,-10.09165 -118.6473,24.8062 -24.80027,32.73715 -22.23411,79.97078 5.82771,107.267 13.7938,13.41748 26.61817,19.00569 45.39883,19.78253 13.9066,0.57523 21.5828,-0.75173 31.9229,-5.51837 9.95801,-4.59053 16.67696,-9.79793 22.37488,-17.34124 9.05004,-11.9811 12.17305,-22.50582 11.30875,-38.11118 -0.81497,-14.71481 -4.00815,-22.22501 -13.49234,-31.73334 -9.72794,-9.75271 -15.5378,-12.12442 -29.82398,-12.17483 -8.95964,-0.0316 -10.97909,0.3025 -15.96655,2.6416 -6.42666,3.01408 -12.41376,8.65875 -15.65434,14.75902 -1.65435,3.11425 -2.1852,5.95626 -2.20324,11.79548 -0.0205,6.63581 0.37804,8.37632 2.90088,12.66843 3.50557,5.96403 9.98434,9.46781 15.56938,8.42006 3.69302,-0.69282 9.71256,-5.63233 9.71256,-7.96994 0,-2.03741 -2.75916,-5.57283 -3.65223,-4.67974 -0.40858,0.40857 -0.18351,1.41686 0.50015,2.24063 2.97992,3.59058 -4.59168,9.52373 -10.49819,8.22644 -5.15143,-1.13144 -7.64238,-3.32414 -10.56693,-9.3017 -2.27576,-4.65149 -2.63587,-6.48952 -2.16509,-11.05088 1.01767,-9.86032 7.30293,-18.56693 16.78361,-23.24942 4.24757,-2.09786 6.49696,-2.46285 15.23999,-2.47295 8.99624,-0.0104 10.97782,0.32605 16.12194,2.7371 15.85982,7.4335 25.45003,23.37711 25.3936,42.21657 -0.0493,16.47397 -5.11216,28.32471 -16.87373,39.49705 -12.35602,11.73701 -25.20416,16.70488 -43.1043,16.66673 -11.92656,-0.0254 -19.61514,-1.76248 -29.74513,-6.72026 -41.51717,-20.31917 -53.29134,-77.08963 -24.14305,-116.4085 32.49706,-43.83613 98.79545,-47.79298 139.85678,-8.347 33.13186,31.82845 41.19071,85.51354 19.07519,127.07179 -15.75496,29.60583 -40.32137,48.68824 -74.94566,58.21539 -13.14705,3.61751 -35.94014,4.56972 -50.3973,2.10541 -53.78991,-9.16884 -93.75528,-49.44585 -104.98,-105.79861 -2.69948,-13.55253 -2.43605,-37.50967 0.56916,-51.76034 3.07633,-14.58794 6.44855,-24.13074 13.05702,-36.94909 13.56371,-26.30939 35.2718,-47.63946 62.44431,-61.35694 47.33005,-23.8936 106.29836,-20.86399 150.64829,7.73984 10.80392,6.96809 19.73117,14.44822 29.48045,24.70167 50.76766,53.39308 58.41449,138.16093 18.20651,201.82577 -4.18294,6.62322 -4.58839,7.63593 -3.0571,7.63593 2.30924,0 14.87796,-22.98368 19.91213,-36.41214 7.47336,-19.93489 10.40611,-37.17254 10.38322,-61.0288 -0.0197,-20.49735 -1.3706,-30.8127 -6.24632,-47.69478 -16.80552,-58.1889 -63.71762,-101.38904 -121.91088,-112.26456 -26.14682,-4.88649 -56.2333,-2.58741 -81.13778,6.20018 -49.64473,17.51727 -85.07503,58.7535 -94.3671,109.83097 -2.42271,13.31738 -2.39595,37.25655 0.056,50.08235 9.3802,49.06673 41.40984,87.15681 85.73859,101.96153 16.67678,5.56964 24.65125,6.71444 44.06691,6.32618 12.71706,-0.2543 19.12352,-0.86998 25.77258,-2.47683 l -10e-6,0 z"
       id="path2997"
       inkscape:connector-curvature="0" />
  </g>
</svg>
